<mxfile host="app.diagrams.net" agent="Mozilla/5.0 (Windows NT 10.0; Win64; x64) AppleWebKit/537.36 (KHTML, like Gecko) Chrome/135.0.0.0 Safari/537.36" version="26.2.13">
  <diagram name="Page-1" id="trYoPE4MwQxC5LMYYH9h">
    <mxGraphModel dx="978" dy="430" grid="1" gridSize="10" guides="1" tooltips="1" connect="1" arrows="1" fold="1" page="1" pageScale="1" pageWidth="827" pageHeight="1169" math="0" shadow="0">
      <root>
        <mxCell id="0" />
        <mxCell id="1" parent="0" />
        <mxCell id="Q-UyV-El7L20it2dl2L2-2" value="&lt;div style=&quot;&quot;&gt;&lt;span style=&quot;background-color: transparent; color: light-dark(rgb(0, 0, 0), rgb(255, 255, 255));&quot;&gt;num&amp;nbsp; &amp;nbsp; &amp;nbsp; &amp;nbsp; &amp;nbsp; &amp;nbsp; &amp;nbsp; &amp;nbsp; &amp;nbsp; &amp;nbsp; &amp;nbsp; &amp;nbsp; &amp;nbsp; &amp;nbsp; &amp;nbsp; &amp;nbsp; &amp;nbsp; &amp;nbsp; &amp;nbsp; &amp;nbsp; &amp;nbsp; &amp;nbsp; &amp;nbsp; &amp;nbsp; &amp;nbsp; &amp;nbsp; &amp;nbsp; &amp;nbsp; &amp;nbsp; &amp;nbsp; &amp;nbsp; &amp;nbsp; &amp;nbsp; &amp;nbsp; &amp;nbsp; &amp;nbsp; &amp;nbsp; &amp;nbsp; &amp;nbsp; &amp;nbsp; &amp;nbsp; &amp;nbsp; &amp;nbsp; &amp;nbsp; &amp;nbsp; &amp;nbsp; &amp;nbsp; &amp;nbsp; &amp;nbsp; &amp;nbsp; &amp;nbsp; &amp;nbsp; &amp;nbsp; &amp;nbsp; &amp;nbsp; &amp;nbsp; &amp;nbsp; &amp;nbsp; &amp;nbsp; &amp;nbsp; &amp;nbsp; &amp;nbsp; &amp;nbsp; &amp;nbsp; &amp;nbsp; &amp;nbsp; &amp;nbsp; &amp;nbsp; &amp;nbsp; &amp;nbsp; &amp;nbsp; &amp;nbsp; &amp;nbsp; &amp;nbsp; &amp;nbsp; &amp;nbsp; &amp;nbsp; &amp;nbsp; &amp;nbsp; &amp;nbsp; &amp;nbsp; &amp;nbsp; &amp;nbsp; &amp;nbsp; Social media&amp;nbsp; &amp;nbsp; &amp;nbsp; &amp;nbsp; &amp;nbsp; logo&amp;nbsp; &amp;nbsp; &amp;nbsp; &amp;nbsp; &amp;nbsp; &amp;nbsp; &amp;nbsp; &amp;nbsp; &amp;nbsp; &amp;nbsp; &amp;nbsp; &amp;nbsp; &amp;nbsp; &amp;nbsp; &amp;nbsp; &amp;nbsp; &amp;nbsp; &amp;nbsp; &amp;nbsp; &amp;nbsp; &amp;nbsp; &amp;nbsp; &amp;nbsp;&amp;nbsp;&lt;/span&gt;&lt;/div&gt;&lt;div style=&quot;text-align: center;&quot;&gt;&amp;nbsp; &amp;nbsp; &amp;nbsp; &amp;nbsp; &amp;nbsp; &amp;nbsp; &amp;nbsp; &amp;nbsp; &amp;nbsp; &amp;nbsp; Home&amp;nbsp; &amp;nbsp; Packages&amp;nbsp; &amp;nbsp; Activities&amp;nbsp; &amp;nbsp; Facility&amp;nbsp; &amp;nbsp; &amp;nbsp;About us&amp;nbsp; &amp;nbsp; &amp;nbsp; &amp;nbsp; &amp;nbsp;&lt;/div&gt;" style="rounded=1;whiteSpace=wrap;html=1;fillColor=#dae8fc;strokeColor=#6c8ebf;gradientColor=#7ea6e0;align=left;" parent="1" vertex="1">
          <mxGeometry x="140" y="20" width="690" height="60" as="geometry" />
        </mxCell>
        <mxCell id="Q-UyV-El7L20it2dl2L2-4" value="when scroll the website navbar should be static as well as nav bar will be&amp;nbsp;unvisible&amp;nbsp;&amp;nbsp;" style="rounded=1;whiteSpace=wrap;html=1;fillColor=#e6d0de;gradientColor=#d5739d;strokeColor=#996185;" parent="1" vertex="1">
          <mxGeometry x="850" y="140" width="140" height="80" as="geometry" />
        </mxCell>
        <mxCell id="Q-UyV-El7L20it2dl2L2-5" value="body" style="rounded=1;whiteSpace=wrap;html=1;" parent="1" vertex="1">
          <mxGeometry x="155" y="120" width="660" height="150" as="geometry" />
        </mxCell>
        <mxCell id="Q-UyV-El7L20it2dl2L2-6" value="" style="endArrow=classic;html=1;rounded=0;fontSize=12;startSize=8;endSize=8;curved=1;exitX=0;exitY=0.5;exitDx=0;exitDy=0;entryX=1.001;entryY=0.867;entryDx=0;entryDy=0;entryPerimeter=0;" parent="1" source="Q-UyV-El7L20it2dl2L2-4" target="Q-UyV-El7L20it2dl2L2-2" edge="1">
          <mxGeometry width="50" height="50" relative="1" as="geometry">
            <mxPoint x="540" y="260" as="sourcePoint" />
            <mxPoint x="590" y="210" as="targetPoint" />
          </mxGeometry>
        </mxCell>
        <mxCell id="Q-UyV-El7L20it2dl2L2-8" value="" style="edgeStyle=orthogonalEdgeStyle;rounded=0;orthogonalLoop=1;jettySize=auto;html=1;" parent="1" source="Q-UyV-El7L20it2dl2L2-7" target="Q-UyV-El7L20it2dl2L2-2" edge="1">
          <mxGeometry relative="1" as="geometry">
            <Array as="points">
              <mxPoint x="860" y="30" />
              <mxPoint x="860" y="30" />
            </Array>
          </mxGeometry>
        </mxCell>
        <mxCell id="Q-UyV-El7L20it2dl2L2-7" value="contect section" style="ellipse;whiteSpace=wrap;html=1;fillColor=#dae8fc;gradientColor=#7ea6e0;strokeColor=#6c8ebf;" parent="1" vertex="1">
          <mxGeometry x="870" width="70" height="40" as="geometry" />
        </mxCell>
        <mxCell id="fzKtpa2pqkDNskrSyEjF-1" value="Text" style="text;html=1;align=center;verticalAlign=middle;resizable=0;points=[];autosize=1;strokeColor=none;fillColor=none;" vertex="1" parent="1">
          <mxGeometry x="1930" y="140" width="50" height="30" as="geometry" />
        </mxCell>
        <mxCell id="fzKtpa2pqkDNskrSyEjF-3" value="&lt;h1 style=&quot;margin-top: 0px;&quot;&gt;/dandeli-resort-frontend&lt;/h1&gt;&lt;h1 style=&quot;margin-top: 0px;&quot;&gt;├── /public&amp;nbsp; &amp;nbsp; &amp;nbsp; &amp;nbsp; &amp;nbsp; &amp;nbsp; &amp;nbsp; &amp;nbsp; &amp;nbsp; &amp;nbsp; &amp;nbsp; &amp;nbsp; &amp;nbsp;# Static assets (images, icons, etc.)&lt;/h1&gt;&lt;h1 style=&quot;margin-top: 0px;&quot;&gt;├── /pages&amp;nbsp; &amp;nbsp; &amp;nbsp; &amp;nbsp; &amp;nbsp; &amp;nbsp; &amp;nbsp; &amp;nbsp; &amp;nbsp; &amp;nbsp; &amp;nbsp; &amp;nbsp; &amp;nbsp; # Next.js route renderers only&lt;/h1&gt;&lt;h1 style=&quot;margin-top: 0px;&quot;&gt;│&amp;nbsp; &amp;nbsp;├── index.js&amp;nbsp; &amp;nbsp; &amp;nbsp; &amp;nbsp; &amp;nbsp; &amp;nbsp; &amp;nbsp; &amp;nbsp; &amp;nbsp; &amp;nbsp; # Homepage&lt;/h1&gt;&lt;h1 style=&quot;margin-top: 0px;&quot;&gt;│&amp;nbsp; &amp;nbsp;├── inquiry.js&amp;nbsp; &amp;nbsp; &amp;nbsp; &amp;nbsp; &amp;nbsp; &amp;nbsp; &amp;nbsp; &amp;nbsp; &amp;nbsp;# Inquiry page&lt;/h1&gt;&lt;h1 style=&quot;margin-top: 0px;&quot;&gt;│&amp;nbsp; &amp;nbsp;├── packages.js&amp;nbsp; &amp;nbsp; &amp;nbsp; &amp;nbsp; &amp;nbsp; &amp;nbsp; &amp;nbsp; &amp;nbsp; # Packages page&lt;/h1&gt;&lt;h1 style=&quot;margin-top: 0px;&quot;&gt;│&amp;nbsp; &amp;nbsp;├── facility.js&amp;nbsp; &amp;nbsp; &amp;nbsp; &amp;nbsp; &amp;nbsp; &amp;nbsp; &amp;nbsp; &amp;nbsp; # Facilities page&lt;/h1&gt;&lt;h1 style=&quot;margin-top: 0px;&quot;&gt;│&amp;nbsp; &amp;nbsp;├── about.js&amp;nbsp; &amp;nbsp; &amp;nbsp; &amp;nbsp; &amp;nbsp; &amp;nbsp; &amp;nbsp; &amp;nbsp; &amp;nbsp; &amp;nbsp;# About page&lt;/h1&gt;&lt;h1 style=&quot;margin-top: 0px;&quot;&gt;│&amp;nbsp; &amp;nbsp;├── blog/&lt;/h1&gt;&lt;h1 style=&quot;margin-top: 0px;&quot;&gt;│&amp;nbsp; &amp;nbsp;│&amp;nbsp; &amp;nbsp;└── [slug].js&amp;nbsp; &amp;nbsp; &amp;nbsp; &amp;nbsp; &amp;nbsp; &amp;nbsp; &amp;nbsp; # Blog detail page (dynamic)&lt;/h1&gt;&lt;h1 style=&quot;margin-top: 0px;&quot;&gt;│&amp;nbsp; &amp;nbsp;├── activities/&lt;/h1&gt;&lt;h1 style=&quot;margin-top: 0px;&quot;&gt;│&amp;nbsp; &amp;nbsp;│&amp;nbsp; &amp;nbsp;├── index.js&amp;nbsp; &amp;nbsp; &amp;nbsp; &amp;nbsp; &amp;nbsp; &amp;nbsp; &amp;nbsp; &amp;nbsp;# Activities listing&lt;/h1&gt;&lt;h1 style=&quot;margin-top: 0px;&quot;&gt;│&amp;nbsp; &amp;nbsp;│&amp;nbsp; &amp;nbsp;└── [slug].js&amp;nbsp; &amp;nbsp; &amp;nbsp; &amp;nbsp; &amp;nbsp; &amp;nbsp; &amp;nbsp; # Activity detail&lt;/h1&gt;&lt;h1 style=&quot;margin-top: 0px;&quot;&gt;│&amp;nbsp; &amp;nbsp;└── 404.js&amp;nbsp; &amp;nbsp; &amp;nbsp; &amp;nbsp; &amp;nbsp; &amp;nbsp; &amp;nbsp; &amp;nbsp; &amp;nbsp; &amp;nbsp; &amp;nbsp;# Custom 404 page&lt;/h1&gt;&lt;h1 style=&quot;margin-top: 0px;&quot;&gt;├── /components&amp;nbsp; &amp;nbsp; &amp;nbsp; &amp;nbsp; &amp;nbsp; &amp;nbsp; &amp;nbsp; &amp;nbsp; &amp;nbsp; &amp;nbsp; # All actual JSX components&lt;/h1&gt;&lt;h1 style=&quot;margin-top: 0px;&quot;&gt;│&amp;nbsp; &amp;nbsp;├── Layout.jsx&amp;nbsp; &amp;nbsp; &amp;nbsp; &amp;nbsp; &amp;nbsp; &amp;nbsp; &amp;nbsp; &amp;nbsp; &amp;nbsp;# Common layout (Navbar + Footer wrapper)&lt;/h1&gt;&lt;h1 style=&quot;margin-top: 0px;&quot;&gt;│&amp;nbsp; &amp;nbsp;├── Navbar.jsx&lt;/h1&gt;&lt;h1 style=&quot;margin-top: 0px;&quot;&gt;│&amp;nbsp; &amp;nbsp;├── Footer.jsx&lt;/h1&gt;&lt;h1 style=&quot;margin-top: 0px;&quot;&gt;│&amp;nbsp; &amp;nbsp;├── HeroSection.jsx&lt;/h1&gt;&lt;h1 style=&quot;margin-top: 0px;&quot;&gt;│&amp;nbsp; &amp;nbsp;├── AboutSection.jsx&lt;/h1&gt;&lt;h1 style=&quot;margin-top: 0px;&quot;&gt;│&amp;nbsp; &amp;nbsp;├── ActivitiesSection.jsx&lt;/h1&gt;&lt;h1 style=&quot;margin-top: 0px;&quot;&gt;│&amp;nbsp; &amp;nbsp;├── InquiryForm.jsx&lt;/h1&gt;&lt;h1 style=&quot;margin-top: 0px;&quot;&gt;│&amp;nbsp; &amp;nbsp;├── BlogCard.jsx&lt;/h1&gt;&lt;h1 style=&quot;margin-top: 0px;&quot;&gt;│&amp;nbsp; &amp;nbsp;├── ActivityCard.jsx&lt;/h1&gt;&lt;h1 style=&quot;margin-top: 0px;&quot;&gt;│&amp;nbsp; &amp;nbsp;├── ScrollToTopButton.jsx&lt;/h1&gt;&lt;h1 style=&quot;margin-top: 0px;&quot;&gt;│&amp;nbsp; &amp;nbsp;└── SEO.jsx&amp;nbsp; &amp;nbsp; &amp;nbsp; &amp;nbsp; &amp;nbsp; &amp;nbsp; &amp;nbsp; &amp;nbsp; &amp;nbsp; &amp;nbsp; # SEO Head component&lt;/h1&gt;&lt;h1 style=&quot;margin-top: 0px;&quot;&gt;├── /styles&amp;nbsp; &amp;nbsp; &amp;nbsp; &amp;nbsp; &amp;nbsp; &amp;nbsp; &amp;nbsp; &amp;nbsp; &amp;nbsp; &amp;nbsp; &amp;nbsp; &amp;nbsp; # All styling&lt;/h1&gt;&lt;h1 style=&quot;margin-top: 0px;&quot;&gt;│&amp;nbsp; &amp;nbsp;├── globals.css&amp;nbsp; &amp;nbsp; &amp;nbsp; &amp;nbsp; &amp;nbsp; &amp;nbsp; &amp;nbsp; &amp;nbsp; # Global styles&lt;/h1&gt;&lt;h1 style=&quot;margin-top: 0px;&quot;&gt;│&amp;nbsp; &amp;nbsp;├── Navbar.module.css&lt;/h1&gt;&lt;h1 style=&quot;margin-top: 0px;&quot;&gt;│&amp;nbsp; &amp;nbsp;├── Footer.module.css&lt;/h1&gt;&lt;h1 style=&quot;margin-top: 0px;&quot;&gt;│&amp;nbsp; &amp;nbsp;└── ... (component-specific styles)&lt;/h1&gt;&lt;h1 style=&quot;margin-top: 0px;&quot;&gt;├── /utils&lt;/h1&gt;&lt;h1 style=&quot;margin-top: 0px;&quot;&gt;│&amp;nbsp; &amp;nbsp;└── api.js&amp;nbsp; &amp;nbsp; &amp;nbsp; &amp;nbsp; &amp;nbsp; &amp;nbsp; &amp;nbsp; &amp;nbsp; &amp;nbsp; &amp;nbsp; &amp;nbsp;# Axios calls to backend/Strapi&lt;/h1&gt;&lt;h1 style=&quot;margin-top: 0px;&quot;&gt;├── /animations&lt;/h1&gt;&lt;h1 style=&quot;margin-top: 0px;&quot;&gt;│&amp;nbsp; &amp;nbsp;└── motionVariants.js&amp;nbsp; &amp;nbsp; &amp;nbsp; &amp;nbsp; &amp;nbsp; # Framer Motion animation variants&lt;/h1&gt;&lt;h1 style=&quot;margin-top: 0px;&quot;&gt;├── /config&lt;/h1&gt;&lt;h1 style=&quot;margin-top: 0px;&quot;&gt;│&amp;nbsp; &amp;nbsp;└── site.js&amp;nbsp; &amp;nbsp; &amp;nbsp; &amp;nbsp; &amp;nbsp; &amp;nbsp; &amp;nbsp; &amp;nbsp; &amp;nbsp; &amp;nbsp; # Site constants (title, baseURL, etc.)&lt;/h1&gt;&lt;h1 style=&quot;margin-top: 0px;&quot;&gt;├── next.config.js&lt;/h1&gt;&lt;h1 style=&quot;margin-top: 0px;&quot;&gt;└── package.json&lt;/h1&gt;&lt;div&gt;&lt;br&gt;&lt;/div&gt;" style="text;html=1;whiteSpace=wrap;overflow=hidden;rounded=0;" vertex="1" parent="1">
          <mxGeometry x="1270" width="720" height="1900" as="geometry" />
        </mxCell>
        <UserObject label="/dandeli-resort-backend&#xa;├── /dandeli-api                   # Custom Node + Express API&#xa;│   ├── /controllers               # Business logic for APIs&#xa;│   ├── /routes                    # API route files&#xa;│   ├── /models                    # Mongoose schemas&#xa;│   ├── /middlewares               # CORS, Helmet, etc.&#xa;│   ├── /utils                     # Helpers (e.g., mail config)&#xa;│   ├── .env                       # Environment variables&#xa;│   ├── server.js                  # Main Express server entry&#xa;│   └── package.json&#xa;├── /dandeli-cms                   # Strapi v4 Project&#xa;│   ├── /api&#xa;│   │   ├── /activity              # Content-type for Activities&#xa;│   │   ├── /blog                  # Content-type for Blog&#xa;│   │   ├── /inquiry               # Stores inquiry form submissions&#xa;│   │   └── ...&#xa;│   ├── /config&#xa;│   │   └── database.js            # MongoDB connection&#xa;│   ├── /public                    # Media uploads from admin&#xa;│   ├── /admin                     # Strapi Admin Panel (Auto-generated)&#xa;│   ├── .env&#xa;│   └── package.json" link="/dandeli-resort-backend&#xa;├── /dandeli-api                   # Custom Node + Express API&#xa;│   ├── /controllers               # Business logic for APIs&#xa;│   ├── /routes                    # API route files&#xa;│   ├── /models                    # Mongoose schemas&#xa;│   ├── /middlewares               # CORS, Helmet, etc.&#xa;│   ├── /utils                     # Helpers (e.g., mail config)&#xa;│   ├── .env                       # Environment variables&#xa;│   ├── server.js                  # Main Express server entry&#xa;│   └── package.json&#xa;├── /dandeli-cms                   # Strapi v4 Project&#xa;│   ├── /api&#xa;│   │   ├── /activity              # Content-type for Activities&#xa;│   │   ├── /blog                  # Content-type for Blog&#xa;│   │   ├── /inquiry               # Stores inquiry form submissions&#xa;│   │   └── ...&#xa;│   ├── /config&#xa;│   │   └── database.js            # MongoDB connection&#xa;│   ├── /public                    # Media uploads from admin&#xa;│   ├── /admin                     # Strapi Admin Panel (Auto-generated)&#xa;│   ├── .env&#xa;│   └── package.json" id="fzKtpa2pqkDNskrSyEjF-4">
          <mxCell style="text;html=1;whiteSpace=wrap;overflow=hidden;rounded=0;" vertex="1" parent="1">
            <mxGeometry x="2200" y="10" width="400" height="920" as="geometry" />
          </mxCell>
        </UserObject>
      </root>
    </mxGraphModel>
  </diagram>
</mxfile>
